<svg width="35" height="35" viewBox="0 0 35 35" fill="none" xmlns="http://www.w3.org/2000/svg">
<path d="M30.8911 0H3.70693C1.66039 0 0 1.66039 0 3.70693V30.8911C0 32.9376 1.66039 34.598 3.70693 34.598H30.8911C32.9376 34.598 34.598 32.9376 34.598 30.8911V3.70693C34.598 1.66039 32.9376 0 30.8911 0ZM27.1146 12.2638C27.1301 12.48 27.1301 12.7039 27.1301 12.9202C27.1301 19.6158 22.033 27.3309 12.7194 27.3309C9.84653 27.3309 7.18217 26.4968 4.94257 25.0604C5.35188 25.1067 5.74574 25.1222 6.16277 25.1222C8.53366 25.1222 10.7115 24.319 12.4491 22.9598C10.2249 22.9134 8.35603 21.4538 7.71504 19.4459C8.49504 19.5618 9.19781 19.5618 10.001 19.3533C7.68415 18.8822 5.94653 16.8434 5.94653 14.3798V14.318C6.61841 14.6964 7.40613 14.9281 8.23247 14.959C7.53775 14.4969 6.96824 13.87 6.57475 13.1342C6.18127 12.3985 5.97605 11.5767 5.97742 10.7424C5.97742 9.80019 6.22455 8.93524 6.66475 8.18613C9.1592 11.2598 12.9047 13.2677 17.1059 13.4839C16.3877 10.0473 18.9594 7.2594 22.0485 7.2594C23.5081 7.2594 24.821 7.8695 25.7477 8.85801C26.8907 8.64177 27.9873 8.21702 28.9604 7.63781C28.582 8.81168 27.7865 9.80019 26.7362 10.4257C27.7556 10.3176 28.7441 10.0319 29.6554 9.63801C28.9681 10.6497 28.1031 11.5455 27.1146 12.2638Z" fill="#EBEBEB"/>
</svg>
