<svg width="35" height="35" viewBox="0 0 35 35" fill="none" xmlns="http://www.w3.org/2000/svg">
<path d="M30.8911 0H3.70693C2.72379 0 1.78092 0.39055 1.08573 1.08573C0.39055 1.78092 0 2.72379 0 3.70693L0 30.8911C0 31.8742 0.39055 32.8171 1.08573 33.5123C1.78092 34.2074 2.72379 34.598 3.70693 34.598H14.3064V22.8354H9.44108V17.299H14.3064V13.0793C14.3064 8.27958 17.1638 5.62835 21.5403 5.62835C23.6363 5.62835 25.828 6.00213 25.828 6.00213V10.713H23.4131C21.0337 10.713 20.2916 12.1896 20.2916 13.704V17.299H25.6033L24.7538 22.8354H20.2916V34.598H30.8911C31.8742 34.598 32.8171 34.2074 33.5123 33.5123C34.2074 32.8171 34.598 31.8742 34.598 30.8911V3.70693C34.598 2.72379 34.2074 1.78092 33.5123 1.08573C32.8171 0.39055 31.8742 0 30.8911 0Z" fill="#EBEBEB"/>
</svg>
