<svg width="35" height="35" viewBox="0 0 35 35" fill="none" xmlns="http://www.w3.org/2000/svg">
<path d="M17.299 13.1797C16.4843 13.18 15.6881 13.4218 15.0108 13.8747C14.3336 14.3275 13.8059 14.9709 13.4943 15.7237C13.1828 16.4764 13.1014 17.3046 13.2606 18.1036C13.4197 18.9025 13.8121 19.6364 14.3883 20.2123C14.9644 20.7883 15.6984 21.1805 16.4975 21.3393C17.2965 21.4981 18.1247 21.4164 18.8773 21.1046C19.6299 20.7928 20.2732 20.2648 20.7257 19.5874C21.1783 18.91 21.4199 18.1137 21.4199 17.299C21.419 16.2065 20.9846 15.1589 20.2119 14.3865C19.4392 13.6142 18.3915 13.1801 17.299 13.1797ZM26.9301 10.0133C26.7203 9.48189 26.4037 8.9992 25.9997 8.59521C25.5957 8.19122 25.113 7.87455 24.5816 7.66484C22.9598 7.02463 19.0984 7.16827 17.299 7.16827C15.4996 7.16827 11.6421 7.01922 10.0157 7.66484C9.48421 7.87455 9.00152 8.19122 8.59753 8.59521C8.19354 8.9992 7.87687 9.48189 7.66716 10.0133C7.02772 11.6351 7.17059 15.5004 7.17059 17.2982C7.17059 19.0961 7.02772 22.9567 7.67025 24.5839C7.87996 25.1153 8.19663 25.598 8.60062 26.002C9.0046 26.406 9.48729 26.7227 10.0187 26.9324C11.6405 27.5726 15.5019 27.4289 17.3021 27.4289C19.1023 27.4289 22.9582 27.578 24.5847 26.9324C25.1161 26.7227 25.5988 26.406 26.0028 26.002C26.4068 25.598 26.7234 25.1153 26.9331 24.5839C27.578 22.9621 27.4297 19.0969 27.4297 17.299C27.4297 15.5011 27.578 11.6413 26.9331 10.0141L26.9301 10.0133ZM17.299 23.6317C16.0465 23.6317 14.8222 23.2603 13.7808 22.5644C12.7394 21.8686 11.9277 20.8795 11.4484 19.7224C10.9691 18.5653 10.8437 17.292 11.088 16.0636C11.3324 14.8351 11.9355 13.7068 12.8211 12.8211C13.7068 11.9355 14.8351 11.3324 16.0636 11.088C17.292 10.8437 18.5653 10.9691 19.7224 11.4484C20.8795 11.9277 21.8686 12.7394 22.5644 13.7808C23.2603 14.8222 23.6317 16.0465 23.6317 17.299C23.6327 18.1309 23.4696 18.9548 23.1517 19.7236C22.8338 20.4924 22.3674 21.1909 21.7791 21.7791C21.1909 22.3674 20.4924 22.8338 19.7236 23.1517C18.9548 23.4696 18.1309 23.6327 17.299 23.6317ZM23.8927 12.1788C23.6003 12.179 23.3144 12.0924 23.0713 11.9301C22.8281 11.7677 22.6385 11.5369 22.5265 11.2669C22.4145 10.9968 22.3851 10.6995 22.4421 10.4128C22.499 10.126 22.6398 9.86253 22.8464 9.65574C23.0531 9.44894 23.3165 9.30808 23.6033 9.25098C23.89 9.19389 24.1873 9.22311 24.4574 9.33497C24.7275 9.44682 24.9584 9.63628 25.1209 9.87937C25.2833 10.1225 25.3701 10.4083 25.3701 10.7007C25.3709 10.8948 25.3333 11.0872 25.2596 11.2669C25.1859 11.4465 25.0775 11.6098 24.9405 11.7474C24.8035 11.885 24.6407 11.9942 24.4614 12.0688C24.2822 12.1434 24.0899 12.1818 23.8958 12.1819L23.8927 12.1788ZM30.8911 0H3.70693C2.72379 0 1.78092 0.39055 1.08573 1.08573C0.39055 1.78092 0 2.72379 0 3.70693L0 30.8911C0 31.8742 0.39055 32.8171 1.08573 33.5123C1.78092 34.2074 2.72379 34.598 3.70693 34.598H30.8911C31.8742 34.598 32.8171 34.2074 33.5123 33.5123C34.2074 32.8171 34.598 31.8742 34.598 30.8911V3.70693C34.598 2.72379 34.2074 1.78092 33.5123 1.08573C32.8171 0.39055 31.8742 0 30.8911 0ZM29.5689 22.396C29.4693 24.3754 29.0175 26.1292 27.5726 27.5703C26.1277 29.0113 24.3754 29.4724 22.3983 29.5666C20.3588 29.6817 14.2439 29.6817 12.2043 29.5666C10.2249 29.467 8.47728 29.0144 7.03003 27.5703C5.58279 26.1261 5.12792 24.3715 5.0337 22.396C4.91863 20.3557 4.91863 14.24 5.0337 12.202C5.13332 10.2226 5.5797 8.46878 7.03003 7.02772C8.48037 5.58665 10.2327 5.13101 12.2043 5.03679C14.2439 4.92172 20.3588 4.92172 22.3983 5.03679C24.3777 5.13641 26.1307 5.58896 27.5726 7.03312C29.0144 8.47728 29.4747 10.2319 29.5689 12.2112C29.684 14.2439 29.684 20.3541 29.5689 22.396Z" fill="#EBEBEB"/>
</svg>
